<svg id="Layer_1" height="512" viewBox="0 0 512 512" width="512" xmlns="http://www.w3.org/2000/svg" data-name="Layer 1"><path d="m427.614 345.554-349.333-.014-67.281 118.46h490z" fill="#4ca987"/><path d="m465.56 406.71 35.44 57.06h-154.02v-.21l-6.04-56.63 124.16.07z" fill="#c79a83"/><path d="m326.64 164h-141.28a12.615 12.615 0 0 0 -12.36 12.44v33.56h166v-33.56a12.615 12.615 0 0 0 -12.36-12.44z" fill="#e87187"/><path d="m313.64 130.36 12.34 33.97h-139.96l12.34-33.97a12.762 12.762 0 0 1 12-8.41h91.28a12.762 12.762 0 0 1 12 8.41z" fill="#adf0e5"/><path d="m256.22 433.24.09 30.53h-245.31l17.45-30.69.2.11z" fill="#ccd3df"/><path d="m162.97 345.4v.14l-12.15 46.52-98.81-.13-.13-.07 26.33-46.32z" fill="#c79a83"/><path d="m327.26 345.52a495.318 495.318 0 0 1 -71.26 57.97 495.976 495.976 0 0 1 -71.54-58.24c-39.43-38.73-80.47-93.11-80.47-151.71 0-80.24 68.21-145.32 152.01-145.32s152.01 65.08 152.01 145.32c0 58.74-41.23 113.24-80.75 151.98zm44.74-147.98a116 116 0 1 0 -116 116 116 116 0 0 0 116-116z" fill="#5fa8ed"/><g fill="#f3ce7d"><path d="m314.28 178.34a8.79 8.79 0 0 1 0 17.58h-18.79l3.4-17.58z"/><path d="m285.08 210.35h-61.28l8.41-14.48h44.46z"/><path d="m210.42 178.34 3.39 17.58h-18.79a8.79 8.79 0 0 1 0-17.58z"/></g><path d="m337.11 246.11a5.969 5.969 0 0 1 -5.91 6.01l-16.14.1a5.947 5.947 0 0 1 -6-5.91l-.13-19.38v-.24h28.05v.05z" fill="#6d7486"/><path d="m203.07 246.11a5.962 5.962 0 0 1 -5.91 6.01l-16.14.1a5.947 5.947 0 0 1 -6-5.91l-.13-19.38v-.24h28.05v.05z" fill="#6d7486"/><path d="m341.41 209h-170.82c-.88 0-1.59 1.07-1.59 1.94v15.16a1.882 1.882 0 0 0 1.59 1.9h170.82a1.882 1.882 0 0 0 1.59-1.9v-15.16c0-.87-.71-1.94-1.59-1.94z" fill="#7e7ea3"/><path d="m214.46 345.25c-39.43-38.73-80.47-93.11-80.47-151.71 0-75.394 60.221-137.4 137.01-144.613q-7.4-.7-15-.707c-83.8 0-152.01 65.08-152.01 145.32 0 58.6 41.04 112.98 80.47 151.71a495.976 495.976 0 0 0 71.54 58.24s5.745-3.673 15-10.419a516.626 516.626 0 0 1 -56.54-47.821z" fill="#4e88b7"/><path d="m238.473 373.22a5.975 5.975 0 0 1 -3.687-1.27c-15.31-11.946-38.014-31.075-59.227-54.368a6 6 0 1 1 8.871-8.08c20.647 22.671 42.794 41.328 57.737 52.987a6 6 0 0 1 -3.694 10.731z" fill="#f4f8fc"/><path d="m169.126 307.05a5.983 5.983 0 0 1 -4.619-2.168q-1.832-2.2-3.627-4.447a6 6 0 1 1 9.363-7.5q1.733 2.161 3.5 4.287a6 6 0 0 1 -4.613 9.833z" fill="#f4f8fc"/></svg>